<?xml version="1.0" standalone="no"?><!DOCTYPE svg PUBLIC "-//W3C//DTD SVG 1.1//EN" "http://www.w3.org/Graphics/SVG/1.1/DTD/svg11.dtd"><svg t="1603977782219" class="icon" viewBox="0 0 1025 1024" version="1.1" xmlns="http://www.w3.org/2000/svg" p-id="4507" xmlns:xlink="http://www.w3.org/1999/xlink" width="200.1953125" height="200"><defs><style type="text/css"></style></defs><path d="M115.330048 633.6a44.032 44.032 0 0 0-43.9808 44.032v263.9872a44.032 44.032 0 1 0 88.0128 0v-264.0384a44.032 44.032 0 0 0-44.032-43.9808z m252.2624-281.6a44.032 44.032 0 0 0-43.9808 44.032V941.568a44.032 44.032 0 1 0 88.0128 0V395.9808a44.032 44.032 0 0 0-44.032-43.9808z m504.576 0a44.032 44.032 0 0 0-44.032 44.032V941.568a44.032 44.032 0 1 0 88.0128 0V395.9808a44.032 44.032 0 0 0-44.032-43.9808zM619.906048 563.2a44.032 44.032 0 0 0-44.032 44.032v334.336a44.032 44.032 0 1 0 88.0128 0v-334.336a44.032 44.032 0 0 0-44.032-44.032z m323.0208-563.2h-158.7712a44.032 44.032 0 1 0 0 88.0128h52.224l-211.5584 209.1008-214.4768-214.528a43.4176 43.4176 0 0 0-61.7472 0.3072L13.851648 417.792a43.8272 43.8272 0 1 0 61.952 61.952l303.8208-303.7696 211.3024 211.3024 2.3552 2.56a43.52 43.52 0 0 0 22.9376 12.288l0.5632 0.0512 1.28 0.256c13.312 2.048 26.7776-2.2528 36.5056-11.5712l0.6656-0.6144 243.712-240.6912v52.8896a44.032 44.032 0 1 0 87.9616 0V44.032a44.032 44.032 0 0 0-44.032-43.9808z" p-id="4508"></path></svg>